# xmcd
#
# Track frame offsets:
#	150
#	20537
#	39225
#	64912
#
# Disc length: 1133
#
# Revision: 3
# Processed by: cddbd v1.5.1PL0 Copyright (c) Steve Scherf et al.
# Submitted via: ExactAudioCopy v0.95a5
# Normalized: r2:TRMNUM
#
DISCID=2b046b04
DTITLE=鄧齊斯 - THE TRUTH
DYEAR=2001
DGENRE=Pop
TTITLE0=柬甫寨的噩夢延續-鄧齊斯
TTITLE1=惡夢、噩夢-鄧齊斯
TTITLE2=彌留之際-鄧齊斯
TTITLE3=沒有選擇的極樂-鄧齊斯
EXTD=
EXTT0=
EXTT1=
EXTT2=
EXTT3=
PLAYORDER=
